<?xml version="1.0" encoding="UTF-8"?>
<svg id="Layer_1" data-name="Layer 1" xmlns="http://www.w3.org/2000/svg" viewBox="0 0 1080 1080">
  <defs>
    <style>
      .cls-1 {
        fill: #fff;
      }
    </style>
  </defs>
  <g>
    <path class="cls-1" d="M572.88,638.81c-.47.02-.96.02-1.43,0-3.59-.12-13.23-3.47-16.48-5.74-25.91-18.04-3.48-55.41,27.69-45.02,21.22,7.07,24.25,36.49,4.11,46.73-2.1,1.07-12.08,3.96-13.89,4.02Z"/>
    <path class="cls-1" d="M574.31,258.06c8.44,5.76,4.45,13.98-5.03,13.06-5.05-.49-4.82-11.33.73-13.06h4.3Z"/>
    <path class="cls-1" d="M325.12,410.36c16.34-15.88,18.61,20.56,0,4.31v-4.31Z"/>
    <path class="cls-1" d="M354.82,468.18c42.52-7.17,46.14,56.2,1.25,51.21-30.84-3.43-32.1-46.01-1.25-51.21Z"/>
    <path class="cls-1" d="M482.28,268.46c45.52-7.81,47.27,51.47,7.05,50.82-34.19-.55-36.68-45.74-7.05-50.82Z"/>
    <path class="cls-1" d="M691.37,390.58c19.5-3.33,37.01,7.92,34.74,29.12-2.53,23.65-36.79,29.39-50.87,10.81-11.37-15-2-36.83,16.13-39.93Z"/>
    <path class="cls-1" d="M417.85,287.15c30.18-1.87,33.31,43.17,2.47,44.25-29.17,1.03-31.91-42.43-2.47-44.25Z"/>
    <path class="cls-1" d="M374.94,400.6c30.93-2.43,32.87,43.77,2.38,44.29s-30.71-42.06-2.38-44.29Z"/>
    <path class="cls-1" d="M678.47,330.25c34.54-5.88,38.16,45.31,2.47,42.84-25.26-1.75-27.31-38.61-2.47-42.84Z"/>
    <path class="cls-1" d="M622.05,583.26c19.45-19.47,53.66,9.24,33.03,30.98-20.26,21.35-54.47-9.51-33.03-30.98Z"/>
    <path class="cls-1" d="M681.41,462.39c30.79-2.42,33.19,43.69,2.38,44.29-28.73.55-31.08-42.03-2.38-44.29Z"/>
    <path class="cls-1" d="M496.63,577.33c25.02-3.63,37.31,30.19,13.79,41.21-32.74,15.34-46.51-36.46-13.79-41.21Z"/>
    <path class="cls-1" d="M556.77,287.14c28.97-1.57,33.11,42.58,2.45,44.26-30.03,1.65-31.72-42.67-2.45-44.26Z"/>
    <path class="cls-1" d="M360,570.78c-9.65-10.27-5.76-28.58,7.31-34.03,18.69-7.78,38.4,8.79,29.67,28.32-6.22,13.94-26.92,16.41-36.99,5.7Z"/>
    <path class="cls-1" d="M407.77,590.27c26.14-5.99,31.48,26.85,11.92,32.06-25.8,6.87-30.23-27.86-11.92-32.06Z"/>
    <path class="cls-1" d="M367.74,330.15c20.97-2.84,24.96,30.56,2.24,30.9-19.68.3-21.51-28.29-2.24-30.9Z"/>
    <path class="cls-1" d="M656.88,312.16c-13.74,13.95-38.37-5.19-23.2-21.12,14.12-14.82,37.06,7.05,23.2,21.12Z"/>
    <path class="cls-1" d="M412.15,361.77c19.99-2.26,22.78,26.21,7.9,29.6-26.53,6.04-28.34-27.29-7.9-29.6Z"/>
    <path class="cls-1" d="M682.73,551.48c23.71-5.44,29.44,24.71,9.09,29.28-20.52,4.61-25.56-25.49-9.09-29.28Z"/>
    <path class="cls-1" d="M633.51,520.04c13.25-13.03,35.91,4.86,23.88,20.37-12.75,16.45-39.46-5.05-23.88-20.37Z"/>
    <path class="cls-1" d="M443.57,551.48c23.93-5.49,28.99,25.17,9.07,29.3-20.21,4.2-25.79-25.47-9.07-29.3Z"/>
    <path class="cls-1" d="M606.86,330.22c20.4-1.83,23.82,30.56,1.1,30.56-19.89,0-20.22-28.84-1.1-30.56Z"/>
    <path class="cls-1" d="M642.64,374.87c12.86,10.37-8.38,29.1-16.86,14.75-7.07-11.95,7.78-22.08,16.86-14.75Z"/>
    <path class="cls-1" d="M711.39,514.11c20.64-4.69,18.71,24.07,1.79,20.7-11.7-2.34-11.35-18.52-1.79-20.7Z"/>
    <path class="cls-1" d="M612.54,566.56c-6.94,8.64-25.15,1.38-18.87-12.5,6.35-14.03,28.91,0,18.87,12.5Z"/>
    <path class="cls-1" d="M599.7,265.52c15.43-3.42,20.58,16.53,7.62,20.65-15.11,4.8-19.96-17.91-7.62-20.65Z"/>
    <path class="cls-1" d="M351.9,376.29c8.71,10.87-7.3,24.49-16.82,14.73-10.91-11.18,8.28-25.38,16.82-14.73Z"/>
    <path class="cls-1" d="M452.18,341.68c16.86-3.83,19.22,24.22-1.43,19.52-9.81-2.23-9.04-17.15,1.43-19.52Z"/>
    <path class="cls-1" d="M420.68,515.53c19.84-4.38,18.51,25.69-1.13,19.19-8.08-2.67-7.76-17.23,1.13-19.19Z"/>
    <path class="cls-1" d="M649.85,421.5c-8.79,8.92-19.07-13.8-3.29-11.13,5.48.93,6.68,7.68,3.29,11.13Z"/>
    <path class="cls-1" d="M731.36,488.17c10.55-3.7,14.86,9.4,4.81,12.13-7.19,1.95-11.54-9.76-4.81-12.13Z"/>
    <path class="cls-1" d="M745.75,463.77c11.39-3.37,12.4,14.01,1.46,12.44-7.16-1.03-7.14-10.75-1.46-12.44Z"/>
    <path class="cls-1" d="M410.57,488.17c10.67-3.75,13.7,9.62,4.82,12.13-7.08,2.01-11.62-9.74-4.82-12.13Z"/>
    <path class="cls-1" d="M576.82,570.92c-5.87,5.96-16.31-4.05-9.09-9.83,6.89-5.51,14.85,3.98,9.09,9.83Z"/>
    <path class="cls-1" d="M481.58,346.78c-5.48-5.44,2.62-15.08,9.08-9.84,6.85,5.55-2.42,16.46-9.08,9.84Z"/>
  </g>
  <g>
    <path class="cls-1" d="M337.51,693.59c-1.39-2.55-3.31-4.5-5.75-5.84-2.44-1.34-5.29-2-8.54-2-3.6,0-6.8.81-9.58,2.44-2.79,1.63-4.97,3.95-6.53,6.97-1.57,3.02-2.35,6.51-2.35,10.46s.8,7.61,2.4,10.63c1.6,3.02,3.82,5.34,6.67,6.97,2.85,1.63,6.16,2.44,9.93,2.44,4.65,0,8.45-1.23,11.41-3.7,2.96-2.47,4.91-5.91,5.84-10.33h-20.91v-9.32h32.94v10.63c-.81,4.24-2.56,8.16-5.23,11.76-2.67,3.6-6.11,6.49-10.33,8.67-4.21,2.18-8.93,3.27-14.16,3.27-5.87,0-11.17-1.32-15.9-3.96-4.74-2.64-8.45-6.32-11.15-11.02-2.7-4.71-4.05-10.05-4.05-16.03s1.35-11.34,4.05-16.08c2.7-4.73,6.42-8.42,11.15-11.06,4.73-2.64,10-3.96,15.81-3.96,6.85,0,12.81,1.67,17.86,5.01,5.05,3.34,8.54,8.03,10.46,14.07h-14.03Z"/>
    <path class="cls-1" d="M380.42,689.32c2.53-1.45,5.42-2.18,8.67-2.18v12.81h-3.22c-3.83,0-6.72.9-8.67,2.7-1.95,1.8-2.92,4.94-2.92,9.41v24.05h-12.2v-48.27h12.2v7.49c1.57-2.55,3.62-4.56,6.14-6.01Z"/>
    <path class="cls-1" d="M441.81,715.64h-35.29c.29,3.49,1.51,6.22,3.66,8.19,2.15,1.97,4.79,2.96,7.93,2.96,4.53,0,7.75-1.95,9.67-5.84h13.16c-1.39,4.65-4.07,8.47-8.02,11.46-3.95,2.99-8.8,4.49-14.55,4.49-4.65,0-8.82-1.03-12.5-3.09-3.69-2.06-6.56-4.98-8.63-8.76-2.06-3.78-3.09-8.13-3.09-13.07s1.02-9.38,3.05-13.16c2.03-3.78,4.88-6.68,8.54-8.71,3.66-2.03,7.87-3.05,12.63-3.05s8.7.99,12.33,2.96c3.63,1.97,6.45,4.78,8.45,8.41,2,3.63,3.01,7.8,3.01,12.5,0,1.74-.12,3.31-.35,4.71ZM429.52,707.44c-.06-3.14-1.19-5.65-3.4-7.54-2.21-1.89-4.91-2.83-8.1-2.83-3.02,0-5.56.91-7.62,2.74-2.06,1.83-3.33,4.37-3.79,7.62h22.91Z"/>
    <path class="cls-1" d="M495.56,715.64h-35.29c.29,3.49,1.51,6.22,3.66,8.19,2.15,1.97,4.79,2.96,7.93,2.96,4.53,0,7.75-1.95,9.67-5.84h13.16c-1.39,4.65-4.07,8.47-8.02,11.46-3.95,2.99-8.8,4.49-14.55,4.49-4.65,0-8.82-1.03-12.5-3.09-3.69-2.06-6.56-4.98-8.63-8.76-2.06-3.78-3.09-8.13-3.09-13.07s1.02-9.38,3.05-13.16c2.03-3.78,4.88-6.68,8.54-8.71,3.66-2.03,7.87-3.05,12.63-3.05s8.7.99,12.33,2.96c3.63,1.97,6.45,4.78,8.45,8.41,2,3.63,3.01,7.8,3.01,12.5,0,1.74-.12,3.31-.35,4.71ZM483.28,707.44c-.06-3.14-1.19-5.65-3.4-7.54-2.21-1.89-4.91-2.83-8.1-2.83-3.02,0-5.56.91-7.62,2.74-2.06,1.83-3.33,4.37-3.79,7.62h22.91Z"/>
    <path class="cls-1" d="M545.49,692.59c3.54,3.63,5.32,8.7,5.32,15.2v28.32h-12.2v-26.66c0-3.83-.96-6.78-2.88-8.84-1.92-2.06-4.53-3.09-7.84-3.09s-6.03,1.03-7.97,3.09c-1.95,2.06-2.92,5.01-2.92,8.84v26.66h-12.2v-48.27h12.2v6.01c1.63-2.09,3.7-3.73,6.23-4.92,2.53-1.19,5.3-1.79,8.32-1.79,5.75,0,10.4,1.82,13.94,5.45Z"/>
    <path class="cls-1" d="M625.47,693.59c-1.39-2.55-3.31-4.5-5.75-5.84-2.44-1.34-5.29-2-8.54-2-3.6,0-6.8.81-9.58,2.44-2.79,1.63-4.97,3.95-6.53,6.97-1.57,3.02-2.35,6.51-2.35,10.46s.8,7.61,2.4,10.63c1.6,3.02,3.82,5.34,6.67,6.97,2.85,1.63,6.16,2.44,9.93,2.44,4.65,0,8.45-1.23,11.41-3.7,2.96-2.47,4.91-5.91,5.84-10.33h-20.91v-9.32h32.94v10.63c-.81,4.24-2.56,8.16-5.23,11.76-2.67,3.6-6.11,6.49-10.33,8.67-4.21,2.18-8.93,3.27-14.16,3.27-5.87,0-11.17-1.32-15.9-3.96-4.74-2.64-8.45-6.32-11.15-11.02-2.7-4.71-4.05-10.05-4.05-16.03s1.35-11.34,4.05-16.08c2.7-4.73,6.42-8.42,11.15-11.06,4.73-2.64,10-3.96,15.81-3.96,6.85,0,12.81,1.67,17.86,5.01,5.05,3.34,8.54,8.03,10.46,14.07h-14.03Z"/>
    <path class="cls-1" d="M649.83,698.82c1.95-3.78,4.59-6.68,7.93-8.71,3.34-2.03,7.07-3.05,11.2-3.05,3.6,0,6.75.73,9.45,2.18,2.7,1.45,4.86,3.28,6.49,5.49v-6.88h12.29v48.27h-12.29v-7.06c-1.57,2.26-3.73,4.14-6.49,5.62-2.76,1.48-5.94,2.22-9.54,2.22-4.07,0-7.77-1.05-11.11-3.14-3.34-2.09-5.98-5.04-7.93-8.84-1.95-3.8-2.92-8.18-2.92-13.11s.97-9.21,2.92-12.98ZM683.15,704.35c-1.16-2.12-2.73-3.75-4.71-4.88-1.98-1.13-4.09-1.7-6.36-1.7s-4.36.55-6.27,1.66c-1.92,1.1-3.47,2.72-4.66,4.84-1.19,2.12-1.79,4.63-1.79,7.54s.59,5.45,1.79,7.62c1.19,2.18,2.76,3.85,4.71,5.01,1.95,1.16,4.02,1.74,6.23,1.74s4.38-.57,6.36-1.7c1.97-1.13,3.54-2.76,4.71-4.88,1.16-2.12,1.74-4.66,1.74-7.62s-.58-5.5-1.74-7.62Z"/>
    <path class="cls-1" d="M723.32,697.86v23.35c0,1.63.39,2.8,1.18,3.53.78.73,2.1,1.09,3.96,1.09h5.66v10.28h-7.67c-10.28,0-15.42-4.99-15.42-14.99v-23.26h-5.75v-10.02h5.75v-11.94h12.29v11.94h10.8v10.02h-10.8Z"/>
    <path class="cls-1" d="M787.45,715.64h-35.29c.29,3.49,1.51,6.22,3.66,8.19,2.15,1.97,4.79,2.96,7.93,2.96,4.53,0,7.75-1.95,9.67-5.84h13.16c-1.39,4.65-4.07,8.47-8.02,11.46-3.95,2.99-8.8,4.49-14.55,4.49-4.65,0-8.82-1.03-12.5-3.09-3.69-2.06-6.56-4.98-8.63-8.76-2.06-3.78-3.09-8.13-3.09-13.07s1.02-9.38,3.05-13.16c2.03-3.78,4.88-6.68,8.54-8.71,3.66-2.03,7.87-3.05,12.63-3.05s8.7.99,12.33,2.96c3.63,1.97,6.45,4.78,8.45,8.41,2,3.63,3.01,7.8,3.01,12.5,0,1.74-.12,3.31-.35,4.71ZM775.16,707.44c-.06-3.14-1.19-5.65-3.4-7.54-2.21-1.89-4.91-2.83-8.1-2.83-3.02,0-5.56.91-7.62,2.74-2.06,1.83-3.33,4.37-3.79,7.62h22.91Z"/>
    <path class="cls-1" d="M292.49,811.22v-7.81l23.22-33.23h11.57v32.37h6.25v8.66h-6.25v10.08h-9.94v-10.08h-24.85ZM317.98,780.84l-14.55,21.72h14.55v-21.72Z"/>
    <path class="cls-1" d="M411.9,771.75v49.55h-9.94v-32.23l-13.28,32.23h-7.53l-13.35-32.23v32.23h-9.94v-49.55h11.29l15.76,36.85,15.76-36.85h11.22Z"/>
    <path class="cls-1" d="M431.64,779.77v12.42h16.68v7.88h-16.68v13.13h18.81v8.09h-28.75v-49.63h28.75v8.09h-18.81Z"/>
    <path class="cls-1" d="M501.85,821.3h-9.94l-22.51-34.01v34.01h-9.94v-49.63h9.94l22.51,34.08v-34.08h9.94v49.63Z"/>
    <path class="cls-1" d="M542.04,811.86h-19.74l-3.27,9.44h-10.44l17.82-49.63h11.57l17.82,49.63h-10.51l-3.27-9.44ZM539.34,803.91l-7.17-20.73-7.17,20.73h14.34Z"/>
    <path class="cls-1" d="M618.78,771.75l-16.75,32.3v17.25h-9.94v-17.25l-16.83-32.3h11.22l10.65,22.65,10.58-22.65h11.08Z"/>
    <path class="cls-1" d="M631.77,819.42c-3.03-1.68-5.41-4.06-7.13-7.13-1.73-3.08-2.59-6.63-2.59-10.65s.89-7.57,2.66-10.65c1.78-3.08,4.2-5.46,7.28-7.14,3.08-1.68,6.51-2.52,10.29-2.52s7.22.84,10.29,2.52c3.08,1.68,5.5,4.06,7.28,7.14,1.78,3.08,2.66,6.63,2.66,10.65s-.91,7.57-2.73,10.65c-1.82,3.08-4.28,5.46-7.38,7.13-3.1,1.68-6.57,2.52-10.4,2.52s-7.19-.84-10.22-2.52ZM647.07,811.97c1.59-.88,2.85-2.19,3.8-3.94.95-1.75,1.42-3.88,1.42-6.39,0-3.74-.98-6.61-2.95-8.63-1.96-2.01-4.37-3.02-7.21-3.02s-5.22,1.01-7.13,3.02c-1.92,2.01-2.88,4.89-2.88,8.63s.93,6.61,2.8,8.63c1.87,2.01,4.22,3.02,7.06,3.02,1.8,0,3.49-.44,5.08-1.31Z"/>
    <path class="cls-1" d="M706.96,781.97v39.33h-10.01v-4.97c-1.28,1.7-2.95,3.04-5,4.01-2.06.97-4.3,1.45-6.71,1.45-3.08,0-5.8-.65-8.16-1.95-2.37-1.3-4.22-3.22-5.57-5.75-1.35-2.53-2.02-5.55-2.02-9.05v-23.07h9.94v21.65c0,3.12.78,5.53,2.34,7.21,1.56,1.68,3.69,2.52,6.39,2.52s4.9-.84,6.46-2.52c1.56-1.68,2.34-4.08,2.34-7.21v-21.65h10.01Z"/>
    <path class="cls-1" d="M728.33,790.14v19.03c0,1.33.32,2.28.96,2.88.64.59,1.71.89,3.23.89h4.61v8.38h-6.25c-8.38,0-12.57-4.07-12.57-12.21v-18.96h-4.69v-8.17h4.69v-9.73h10.01v9.73h8.8v8.17h-8.8Z"/>
    <path class="cls-1" d="M774.4,783.36c2.32,1.3,4.13,3.22,5.43,5.75,1.3,2.53,1.95,5.57,1.95,9.12v23.07h-9.94v-21.72c0-3.12-.78-5.53-2.34-7.21-1.56-1.68-3.69-2.52-6.39-2.52s-4.91.84-6.5,2.52c-1.59,1.68-2.38,4.08-2.38,7.21v21.72h-9.94v-52.54h9.94v18.1c1.28-1.7,2.98-3.04,5.11-4.01,2.13-.97,4.5-1.45,7.1-1.45,2.98,0,5.63.65,7.95,1.95Z"/>
  </g>
</svg>