<?xml version="1.0" encoding="UTF-8"?>
<svg id="Layer_1" data-name="Layer 1" xmlns="http://www.w3.org/2000/svg" viewBox="0 0 1080 1080">
  <defs>
    <style>
      .cls-1 {
        fill: #fff;
      }

      .cls-2 {
        fill: #00796b;
        stroke: #f4f9fc;
        stroke-miterlimit: 10;
        stroke-width: 2.13px;
      }
    </style>
  </defs>
  <rect class="cls-2" x="-36.17" y="-36.17" width="1152.33" height="1152.33"/>
  <g>
    <g>
      <path class="cls-1" d="M261.08,651.64c-.28,0-.56,0-.84,0-2.11-.07-7.76-2.04-9.66-3.36-15.19-10.58-2.04-32.49,16.24-26.4,12.44,4.15,14.22,21.4,2.41,27.4-1.23.63-7.08,2.32-8.14,2.36Z"/>
      <path class="cls-1" d="M261.92,428.36c4.95,3.38,2.61,8.2-2.95,7.66-2.96-.29-2.83-6.65.43-7.66h2.52Z"/>
      <path class="cls-1" d="M115.79,517.67c9.58-9.31,10.91,12.06,0,2.53v-2.53Z"/>
      <path class="cls-1" d="M133.21,551.58c24.93-4.2,27.06,32.96.73,30.03-18.08-2.01-18.82-26.98-.73-30.03Z"/>
      <path class="cls-1" d="M207.95,434.46c26.7-4.58,27.72,30.18,4.14,29.8-20.05-.32-21.51-26.82-4.14-29.8Z"/>
      <path class="cls-1" d="M330.56,506.07c11.44-1.95,21.7,4.64,20.37,17.08-1.48,13.87-21.57,17.23-29.83,6.34-6.67-8.8-1.17-21.6,9.46-23.41Z"/>
      <path class="cls-1" d="M170.17,445.42c17.69-1.1,19.54,25.31,1.45,25.95-17.1.6-18.71-24.88-1.45-25.95Z"/>
      <path class="cls-1" d="M145.01,511.95c18.14-1.43,19.27,25.67,1.4,25.97-17.42.3-18.01-24.66-1.4-25.97Z"/>
      <path class="cls-1" d="M323,470.69c20.26-3.45,22.38,26.57,1.45,25.12-14.81-1.03-16.02-22.64-1.45-25.12Z"/>
      <path class="cls-1" d="M289.92,619.06c11.4-11.41,31.47,5.42,19.37,18.17-11.88,12.52-31.94-5.58-19.37-18.17Z"/>
      <path class="cls-1" d="M324.72,548.18c18.05-1.42,19.46,25.62,1.4,25.97-16.85.33-18.22-24.65-1.4-25.97Z"/>
      <path class="cls-1" d="M216.37,615.58c14.67-2.13,21.88,17.7,8.09,24.16-19.2,8.99-27.28-21.38-8.09-24.16Z"/>
      <path class="cls-1" d="M251.63,445.41c16.99-.92,19.42,24.97,1.44,25.95-17.61.96-18.6-25.02-1.44-25.95Z"/>
      <path class="cls-1" d="M136.24,611.74c-5.66-6.02-3.38-16.76,4.29-19.95,10.96-4.56,22.52,5.15,17.4,16.61-3.65,8.17-15.79,9.63-21.69,3.34Z"/>
      <path class="cls-1" d="M164.26,623.17c15.33-3.51,18.46,15.75,6.99,18.8-15.13,4.03-17.73-16.34-6.99-18.8Z"/>
      <path class="cls-1" d="M140.79,470.63c12.3-1.67,14.64,17.92,1.31,18.12-11.54.17-12.61-16.59-1.31-18.12Z"/>
      <path class="cls-1" d="M310.34,460.08c-8.06,8.18-22.5-3.05-13.61-12.38,8.28-8.69,21.73,4.14,13.61,12.38Z"/>
      <path class="cls-1" d="M166.83,489.18c11.73-1.32,13.36,15.37,4.64,17.36-15.56,3.54-16.62-16-4.64-17.36Z"/>
      <path class="cls-1" d="M325.5,600.42c13.9-3.19,17.26,14.49,5.33,17.17-12.04,2.7-14.99-14.95-5.33-17.17Z"/>
      <path class="cls-1" d="M296.63,581.99c7.77-7.64,21.06,2.85,14,11.94-7.48,9.65-23.14-2.96-14-11.94Z"/>
      <path class="cls-1" d="M185.25,600.42c14.03-3.22,17,14.76,5.32,17.18-11.85,2.46-15.12-14.93-5.32-17.18Z"/>
      <path class="cls-1" d="M281,470.67c11.96-1.07,13.97,17.92.65,17.92-11.67,0-11.86-16.91-.65-17.92Z"/>
      <path class="cls-1" d="M301.98,496.86c7.54,6.08-4.91,17.06-9.89,8.65-4.15-7.01,4.56-12.95,9.89-8.65Z"/>
      <path class="cls-1" d="M342.3,578.51c12.1-2.75,10.97,14.12,1.05,12.14-6.86-1.37-6.65-10.86-1.05-12.14Z"/>
      <path class="cls-1" d="M284.34,609.26c-4.07,5.07-14.75.81-11.07-7.33,3.72-8.23,16.95,0,11.07,7.33Z"/>
      <path class="cls-1" d="M276.8,432.74c9.05-2.01,12.07,9.69,4.47,12.11-8.86,2.81-11.71-10.5-4.47-12.11Z"/>
      <path class="cls-1" d="M131.5,497.69c5.11,6.38-4.28,14.36-9.86,8.64-6.4-6.56,4.86-14.89,9.86-8.64Z"/>
      <path class="cls-1" d="M190.3,477.39c9.89-2.25,11.27,14.2-.84,11.45-5.75-1.31-5.3-10.05.84-11.45Z"/>
      <path class="cls-1" d="M171.83,579.34c11.63-2.57,10.85,15.07-.66,11.25-4.74-1.57-4.55-10.1.66-11.25Z"/>
      <path class="cls-1" d="M306.22,524.2c-5.15,5.23-11.19-8.09-1.93-6.52,3.21.54,3.92,4.5,1.93,6.52Z"/>
      <path class="cls-1" d="M354.02,563.3c6.19-2.17,8.71,5.51,2.82,7.11-4.22,1.14-6.77-5.73-2.82-7.11Z"/>
      <path class="cls-1" d="M362.45,548.99c6.68-1.98,7.27,8.22.86,7.29-4.2-.61-4.19-6.31-.86-7.29Z"/>
      <path class="cls-1" d="M165.9,563.3c6.26-2.2,8.03,5.64,2.83,7.11-4.15,1.18-6.81-5.71-2.83-7.11Z"/>
      <path class="cls-1" d="M263.39,611.83c-3.44,3.49-9.57-2.38-5.33-5.76,4.04-3.23,8.71,2.34,5.33,5.76Z"/>
      <path class="cls-1" d="M207.54,480.39c-3.21-3.19,1.54-8.84,5.32-5.77,4.02,3.26-1.42,9.65-5.32,5.77Z"/>
    </g>
    <g>
      <path class="cls-1" d="M435.14,473.73c-1.64-3-3.89-5.29-6.76-6.86-2.87-1.57-6.21-2.35-10.03-2.35-4.23,0-7.99.96-11.26,2.87-3.28,1.91-5.84,4.64-7.68,8.19-1.84,3.55-2.76,7.64-2.76,12.29s.94,8.94,2.82,12.49c1.88,3.55,4.49,6.28,7.83,8.19,3.34,1.91,7.23,2.87,11.67,2.87,5.46,0,9.93-1.45,13.41-4.35,3.48-2.9,5.77-6.94,6.86-12.13h-24.57v-10.95h38.7v12.49c-.96,4.98-3,9.59-6.14,13.82-3.14,4.23-7.18,7.63-12.13,10.19-4.95,2.56-10.49,3.84-16.64,3.84-6.89,0-13.12-1.55-18.68-4.66-5.56-3.11-9.93-7.42-13.1-12.95-3.17-5.53-4.76-11.81-4.76-18.84s1.59-13.32,4.76-18.89c3.17-5.56,7.54-9.89,13.1-13,5.56-3.11,11.75-4.66,18.58-4.66,8.05,0,15.05,1.96,20.99,5.89,5.94,3.92,10.03,9.44,12.28,16.53h-16.48Z"/>
      <path class="cls-1" d="M485.56,468.71c2.97-1.7,6.36-2.56,10.19-2.56v15.05h-3.79c-4.51,0-7.9,1.06-10.19,3.17-2.29,2.12-3.43,5.8-3.43,11.06v28.26h-14.33v-56.71h14.33v8.8c1.84-3,4.25-5.36,7.22-7.06Z"/>
      <path class="cls-1" d="M557.68,499.63h-41.46c.34,4.1,1.77,7.3,4.3,9.62,2.52,2.32,5.63,3.48,9.32,3.48,5.32,0,9.11-2.29,11.36-6.86h15.46c-1.64,5.46-4.78,9.95-9.42,13.46-4.64,3.52-10.34,5.27-17.1,5.27-5.46,0-10.36-1.21-14.69-3.63-4.33-2.42-7.71-5.85-10.13-10.29-2.42-4.44-3.63-9.55-3.63-15.36s1.19-11.02,3.58-15.46c2.39-4.44,5.73-7.85,10.03-10.24,4.3-2.39,9.25-3.58,14.84-3.58s10.22,1.16,14.49,3.48c4.26,2.32,7.58,5.61,9.93,9.88,2.35,4.27,3.53,9.16,3.53,14.69,0,2.05-.14,3.89-.41,5.53ZM543.25,490c-.07-3.69-1.4-6.64-3.99-8.85-2.6-2.22-5.77-3.33-9.52-3.33-3.55,0-6.54,1.08-8.96,3.23-2.42,2.15-3.91,5.14-4.45,8.96h26.92Z"/>
      <path class="cls-1" d="M620.85,499.63h-41.46c.34,4.1,1.77,7.3,4.3,9.62,2.52,2.32,5.63,3.48,9.32,3.48,5.32,0,9.11-2.29,11.36-6.86h15.46c-1.64,5.46-4.78,9.95-9.42,13.46-4.64,3.52-10.34,5.27-17.1,5.27-5.46,0-10.36-1.21-14.69-3.63-4.33-2.42-7.71-5.85-10.13-10.29-2.42-4.44-3.63-9.55-3.63-15.36s1.19-11.02,3.58-15.46c2.39-4.44,5.73-7.85,10.03-10.24,4.3-2.39,9.25-3.58,14.84-3.58s10.22,1.16,14.49,3.48c4.26,2.32,7.58,5.61,9.93,9.88,2.35,4.27,3.53,9.16,3.53,14.69,0,2.05-.14,3.89-.41,5.53ZM606.41,490c-.07-3.69-1.4-6.64-3.99-8.85-2.6-2.22-5.77-3.33-9.52-3.33-3.55,0-6.54,1.08-8.96,3.23-2.42,2.15-3.91,5.14-4.45,8.96h26.92Z"/>
      <path class="cls-1" d="M679.51,472.55c4.16,4.27,6.25,10.22,6.25,17.86v33.27h-14.33v-31.33c0-4.5-1.13-7.97-3.38-10.39-2.25-2.42-5.32-3.63-9.21-3.63s-7.08,1.21-9.37,3.63c-2.29,2.42-3.43,5.89-3.43,10.39v31.33h-14.33v-56.71h14.33v7.06c1.91-2.46,4.35-4.38,7.32-5.78,2.97-1.4,6.23-2.1,9.78-2.1,6.76,0,12.22,2.13,16.38,6.4Z"/>
      <path class="cls-1" d="M773.49,473.73c-1.64-3-3.89-5.29-6.76-6.86-2.87-1.57-6.21-2.35-10.03-2.35-4.23,0-7.99.96-11.26,2.87-3.28,1.91-5.84,4.64-7.68,8.19-1.84,3.55-2.76,7.64-2.76,12.29s.94,8.94,2.82,12.49c1.88,3.55,4.49,6.28,7.83,8.19,3.34,1.91,7.23,2.87,11.67,2.87,5.46,0,9.93-1.45,13.41-4.35,3.48-2.9,5.77-6.94,6.86-12.13h-24.57v-10.95h38.7v12.49c-.96,4.98-3,9.59-6.14,13.82-3.14,4.23-7.18,7.63-12.13,10.19-4.95,2.56-10.49,3.84-16.64,3.84-6.89,0-13.12-1.55-18.68-4.66-5.56-3.11-9.93-7.42-13.1-12.95-3.17-5.53-4.76-11.81-4.76-18.84s1.59-13.32,4.76-18.89c3.17-5.56,7.54-9.89,13.1-13,5.56-3.11,11.75-4.66,18.58-4.66,8.05,0,15.05,1.96,20.99,5.89,5.94,3.92,10.03,9.44,12.28,16.53h-16.48Z"/>
      <path class="cls-1" d="M802.1,479.87c2.29-4.44,5.39-7.85,9.32-10.24,3.92-2.39,8.31-3.58,13.15-3.58,4.23,0,7.93.85,11.11,2.56,3.17,1.71,5.72,3.86,7.63,6.45v-8.09h14.43v56.71h-14.43v-8.29c-1.84,2.66-4.39,4.86-7.63,6.6-3.24,1.74-6.98,2.61-11.21,2.61-4.78,0-9.13-1.23-13.05-3.68-3.93-2.46-7.03-5.92-9.32-10.39-2.29-4.47-3.43-9.61-3.43-15.41s1.14-10.82,3.43-15.25ZM841.26,486.37c-1.37-2.49-3.21-4.4-5.53-5.73-2.32-1.33-4.81-2-7.47-2s-5.12.65-7.37,1.95c-2.25,1.3-4.08,3.19-5.48,5.68-1.4,2.49-2.1,5.44-2.1,8.86s.7,6.4,2.1,8.96c1.4,2.56,3.24,4.52,5.53,5.89,2.29,1.37,4.73,2.05,7.32,2.05s5.15-.67,7.47-2c2.32-1.33,4.16-3.24,5.53-5.73,1.36-2.49,2.05-5.48,2.05-8.96s-.68-6.47-2.05-8.96Z"/>
      <path class="cls-1" d="M888.45,478.74v27.44c0,1.91.46,3.29,1.38,4.15.92.85,2.47,1.28,4.66,1.28h6.65v12.08h-9.01c-12.08,0-18.12-5.87-18.12-17.61v-27.33h-6.76v-11.77h6.76v-14.02h14.43v14.02h12.69v11.77h-12.69Z"/>
      <path class="cls-1" d="M963.8,499.63h-41.46c.34,4.1,1.77,7.3,4.3,9.62,2.52,2.32,5.63,3.48,9.32,3.48,5.32,0,9.11-2.29,11.36-6.86h15.46c-1.64,5.46-4.78,9.95-9.42,13.46-4.64,3.52-10.34,5.27-17.1,5.27-5.46,0-10.36-1.21-14.69-3.63-4.33-2.42-7.71-5.85-10.13-10.29-2.42-4.44-3.63-9.55-3.63-15.36s1.19-11.02,3.58-15.46c2.39-4.44,5.73-7.85,10.03-10.24,4.3-2.39,9.25-3.58,14.84-3.58s10.22,1.16,14.49,3.48c4.26,2.32,7.58,5.61,9.93,9.88,2.35,4.27,3.53,9.16,3.53,14.69,0,2.05-.14,3.89-.41,5.53ZM949.36,490c-.07-3.69-1.4-6.64-3.99-8.85-2.6-2.22-5.77-3.33-9.52-3.33-3.55,0-6.54,1.08-8.96,3.23-2.42,2.15-3.91,5.14-4.45,8.96h26.92Z"/>
      <path class="cls-1" d="M382.24,611.94v-9.18l27.28-39.04h13.6v38.04h7.34v10.18h-7.34v11.85h-11.68v-11.85h-29.2ZM412.19,576.24l-17.1,25.53h17.1v-25.53Z"/>
      <path class="cls-1" d="M522.55,565.56v58.22h-11.68v-37.87l-15.6,37.87h-8.84l-15.68-37.87v37.87h-11.68v-58.22h13.26l18.52,43.29,18.52-43.29h13.18Z"/>
      <path class="cls-1" d="M545.74,574.99v14.6h19.6v9.26h-19.6v15.43h22.11v9.51h-33.78v-58.31h33.78v9.51h-22.11Z"/>
      <path class="cls-1" d="M628.24,623.79h-11.68l-26.44-39.96v39.96h-11.68v-58.31h11.68l26.44,40.04v-40.04h11.68v58.31Z"/>
      <path class="cls-1" d="M675.45,612.69h-23.19l-3.84,11.09h-12.26l20.94-58.31h13.6l20.94,58.31h-12.35l-3.84-11.09ZM672.28,603.35l-8.42-24.36-8.42,24.36h16.85Z"/>
      <path class="cls-1" d="M765.62,565.56l-19.69,37.95v20.27h-11.68v-20.27l-19.77-37.95h13.18l12.51,26.61,12.43-26.61h13.01Z"/>
      <path class="cls-1" d="M780.89,621.57c-3.56-1.97-6.35-4.77-8.38-8.38-2.03-3.61-3.04-7.79-3.04-12.51s1.04-8.9,3.13-12.51c2.09-3.62,4.93-6.41,8.55-8.38,3.61-1.97,7.64-2.96,12.09-2.96s8.48.99,12.1,2.96c3.61,1.97,6.46,4.77,8.55,8.38,2.09,3.62,3.13,7.79,3.13,12.51s-1.07,8.9-3.21,12.51c-2.14,3.62-5.03,6.41-8.68,8.38-3.64,1.97-7.72,2.96-12.22,2.96s-8.45-.99-12.01-2.96ZM798.86,612.82c1.86-1.03,3.35-2.57,4.46-4.63,1.11-2.06,1.67-4.56,1.67-7.51,0-4.39-1.16-7.77-3.46-10.13-2.31-2.36-5.13-3.55-8.47-3.55s-6.13,1.18-8.38,3.55c-2.25,2.36-3.38,5.74-3.38,10.13s1.1,7.77,3.29,10.14c2.2,2.36,4.96,3.54,8.3,3.54,2.11,0,4.1-.51,5.96-1.54Z"/>
      <path class="cls-1" d="M869.22,577.57v46.21h-11.76v-5.84c-1.5,2-3.46,3.57-5.88,4.71-2.42,1.14-5.05,1.71-7.88,1.71-3.62,0-6.81-.76-9.59-2.29-2.78-1.53-4.96-3.78-6.55-6.76-1.59-2.97-2.38-6.52-2.38-10.64v-27.11h11.68v25.44c0,3.67.92,6.49,2.75,8.47,1.84,1.97,4.34,2.96,7.51,2.96s5.76-.99,7.59-2.96c1.84-1.97,2.75-4.8,2.75-8.47v-25.44h11.76Z"/>
      <path class="cls-1" d="M894.33,587.17v22.35c0,1.56.38,2.68,1.13,3.38.75.7,2.01,1.04,3.8,1.04h5.42v9.84h-7.34c-9.84,0-14.77-4.78-14.77-14.35v-22.27h-5.5v-9.59h5.5v-11.43h11.76v11.43h10.34v9.59h-10.34Z"/>
      <path class="cls-1" d="M948.47,579.2c2.72,1.53,4.85,3.78,6.38,6.76,1.53,2.98,2.29,6.55,2.29,10.72v27.11h-11.68v-25.53c0-3.67-.92-6.49-2.75-8.47-1.84-1.97-4.34-2.96-7.51-2.96s-5.77.99-7.63,2.96c-1.86,1.97-2.79,4.8-2.79,8.47v25.53h-11.68v-61.73h11.68v21.27c1.5-2,3.5-3.57,6.01-4.71,2.5-1.14,5.28-1.71,8.34-1.71,3.5,0,6.62.77,9.34,2.29Z"/>
    </g>
  </g>
</svg>